<?xml version="1.0" encoding="UTF-8" standalone="no"?>
<!-- Created with Inkscape (http://www.inkscape.org/) -->

<svg
   xmlns:dc="http://purl.org/dc/elements/1.1/"
   xmlns:cc="http://creativecommons.org/ns#"
   xmlns:rdf="http://www.w3.org/1999/02/22-rdf-syntax-ns#"
   xmlns:svg="http://www.w3.org/2000/svg"
   xmlns="http://www.w3.org/2000/svg"
   xmlns:sodipodi="http://sodipodi.sourceforge.net/DTD/sodipodi-0.dtd"
   xmlns:inkscape="http://www.inkscape.org/namespaces/inkscape"
   id="svg2"
   version="1.1"
   inkscape:version="0.91 r13725"
   width="41.858086"
   height="36.659157"
   viewBox="0 0 41.858086 36.659157"
   sodipodi:docname="graf.svg">
  <metadata
     id="metadata8">
    <rdf:RDF>
      <cc:Work
         rdf:about="">
        <dc:format>image/svg+xml</dc:format>
        <dc:type
           rdf:resource="http://purl.org/dc/dcmitype/StillImage" />
        <dc:title></dc:title>
      </cc:Work>
    </rdf:RDF>
  </metadata>
  <defs
     id="defs6" />
  <sodipodi:namedview
     pagecolor="#ffffff"
     bordercolor="#666666"
     borderopacity="1"
     objecttolerance="10"
     gridtolerance="10"
     guidetolerance="10"
     inkscape:pageopacity="0"
     inkscape:pageshadow="2"
     inkscape:window-width="1366"
     inkscape:window-height="706"
     id="namedview4"
     showgrid="false"
     inkscape:zoom="7.5236617"
     inkscape:cx="51.238348"
     inkscape:cy="15.492249"
     inkscape:window-x="-8"
     inkscape:window-y="-8"
     inkscape:window-maximized="1"
     inkscape:current-layer="svg2"
     fit-margin-top="0"
     fit-margin-left="0"
     fit-margin-right="0"
     fit-margin-bottom="0" />
  <path
     style="fill:#666666"
     d="m 96.959855,43.576946 c 0,-2.547642 -0.233539,-2.77716 -2.614904,-2.569876 -3.838654,0.334132 -5.0492,-1.622743 -3.512595,-5.678189 1.023607,-2.70153 1.634307,-3.24147 3.436174,-3.038039 1.727605,0.195049 2.148697,0.723495 1.989887,2.497194 -0.178466,1.993226 0.06623,2.19667 2.145741,1.783969 2.453432,-0.486911 3.555702,0.596406 3.555702,3.494585 0,0.808568 0.34578,1.639107 0.7684,1.845642 0.42262,0.206535 0.66661,-1.106824 0.5422,-2.918575 l -0.2262,-3.294094 1.18903,3.558291 1.18903,3.55829 0.32935,-3.410534 c 0.45443,-4.705811 2.17555,-3.863618 4.22952,2.069629 l 1.696,4.899195 -7.35867,0 -7.358665,0 0,-2.797488 z M 99.584501,34.1037 c -2.885155,-2.281381 -1.688866,-5.916082 1.947159,-5.916082 2.68855,0 4.71018,2.375278 4.24099,4.982859 -0.39013,2.16816 -3.94786,2.704694 -6.188149,0.933223 z m 9.089409,-0.07991 c -0.39273,-0.310546 -0.71406,-1.730387 -0.71406,-3.155201 0,-1.424816 -0.94872,-3.86204 -2.10827,-5.416056 -3.89924,-5.22573 -0.49147,-10.707345 6.65647,-10.707345 6.32452,0 9.41817,5.769792 5.94293,11.083807 -0.82988,1.268975 -1.85995,3.653151 -2.28905,5.298167 -0.67219,2.577001 -1.19493,3.023484 -3.77706,3.226097 -1.64829,0.129338 -3.31822,-0.01892 -3.71096,-0.329471 z m 8.26562,-8.176865 c 2.60905,-4.043915 2.55786,-6.690486 -0.16824,-8.69874 -3.67467,-2.707051 -9.06654,-1.682966 -10.86827,2.064224 -0.74436,1.548109 -0.453,2.874641 1.29202,5.882405 1.89731,3.270259 2.6851,3.883535 4.98864,3.883535 2.18009,0 3.14575,-0.635825 4.75585,-3.131424 z m -6.29497,1.426157 c -2.56425,-1.134723 -2.0114,-2.343356 0.81529,-1.782367 3.27334,0.649629 3.17418,-0.376911 -0.24464,-2.532494 -2.69849,-1.701422 -2.71319,-1.757991 -0.87413,-3.364867 1.45114,-1.26793 2.29069,-1.456537 3.74464,-0.841245 2.73412,1.157042 2.30275,2.434123 -0.62587,1.852907 -1.375,-0.272883 -2.5,-0.158864 -2.5,0.253377 0,0.41224 1.125,1.154844 2.5,1.650231 1.375,0.495387 2.5,1.534396 2.5,2.308908 0,1.94026 -3.17015,3.404804 -5.31529,2.45555 z m 11.31529,-1.062292 c -1.35129,-1.287476 -1.02806,-1.448412 1.41822,-0.706132 0.86998,0.263981 1.58178,0.797724 1.58178,1.186097 0,1.093765 -1.62035,0.834528 -3,-0.479965 z M 99.950717,25.428764 c 0.679663,-0.647564 1.682803,-0.958913 2.229203,-0.691889 0.60347,0.294912 0.46085,0.752357 -0.3633,1.165282 -2.157038,1.080744 -3.215283,0.81226 -1.865903,-0.473393 z m 23.509143,-4.357726 c 0.33991,-0.434902 1.04147,-0.790731 1.55901,-0.790731 0.51754,0 0.94099,0.355829 0.94099,0.790731 0,0.434903 -0.70156,0.790732 -1.55902,0.790732 -0.85746,0 -1.2809,-0.355829 -0.94098,-0.790732 z M 97.459855,20.280307 c 0.339918,-0.434902 1.266476,-0.790731 2.059017,-0.790731 0.792538,0 1.440988,0.355829 1.440988,0.790731 0,0.434902 -0.92656,0.790731 -2.059022,0.790731 -1.13246,0 -1.780902,-0.355829 -1.440983,-0.790731 z M 121.95986,16.41125 c 0,-0.388373 0.7118,-0.922116 1.58178,-1.186097 2.44628,-0.742279 2.76951,-0.581344 1.41822,0.706132 -1.37965,1.314493 -3,1.57373 -3,0.479965 z m -21.85677,-0.788598 c -0.824149,-0.412925 -0.966769,-0.87037 -0.363305,-1.165282 0.546405,-0.267025 1.549545,0.04433 2.229205,0.69189 1.34938,1.285652 0.29114,1.554136 -1.8659,0.473392 z m 17.88857,-2.609942 c -0.0175,-0.735412 0.44813,-1.571659 1.03473,-1.858326 1.76258,-0.86137 2.0097,0.04669 0.45494,1.671701 -1.27998,1.33781 -1.46175,1.360582 -1.48967,0.186625 z m -12.68673,-1.069183 c -0.93027,-1.916937 0.36779,-2.2630029 1.60909,-0.428987 0.77398,1.143546 0.78919,1.649186 0.0496,1.649186 -0.58662,0 -1.33304,-0.54909 -1.65872,-1.220199 z m 6.65493,-1.105327 c 0,-0.8954718 0.45,-1.6281293 1,-1.6281293 0.55,0 1,0.5127433 1,1.1394303 0,0.626686 -0.45,1.359344 -1,1.628128 -0.55,0.268785 -1,-0.243959 -1,-1.139429 z"
     id="path4138"
     inkscape:connector-curvature="0" />
  <path
     inkscape:connector-curvature="0"
     id="path4138-1"
     d="M 1.724776,34.811467 C 0.786916,33.803807 0.465171,32.97936 1.009788,32.97936 c 1.441684,0 1.214903,-4.349962 -0.259788,-4.983061 -1,-0.429309 -1,-0.643965 0,-1.073274 1.622012,-0.696346 1.622012,-4.691641 0,-5.293744 -1,-0.371208 -1,-0.478536 0,-0.536638 1.626976,-0.09453 1.626976,-4.357212 0,-5.055689 -1,-0.429309 -1,-0.643964 0,-1.073273 1.474691,-0.6331 1.701472,-4.9830608 0.259788,-4.9830608 -0.544617,0 -0.207117,-0.8436021 0.75,-1.8746715 C 3.432502,6.3039929 3.519394,6.6875815 4,17.995407 l 0.5,11.764129 3.32336,-5.857141 3.323359,-5.857144 2.91621,2.570254 c 1.603915,1.413639 3.070223,2.393443 3.258462,2.177344 1.792838,-2.058184 10.597863,-18.6278137 10.207504,-19.2088657 -0.52918,-0.78769 4.331768,-4.15764204 5.047452,-3.49924904 0.221551,0.203816 0.688757,1.68581404 1.038236,3.29333004 0.500727,2.3032165 0.298422,2.9227566 -0.954399,2.9227566 -0.874399,0 -2.106797,0.8886603 -2.738663,1.9747997 -0.933816,1.6051768 -0.846817,2.1302944 0.464816,2.8055624 0.887515,0.456918 1.620554,1.534651 1.628976,2.39496 0.0087,0.889576 0.332176,1.167435 0.75,0.64425 0.404078,-0.505972 1.566901,-0.984302 2.584052,-1.062955 1.646216,-0.127298 1.772684,0.327449 1.151304,4.139772 -0.383934,2.35553 -1.103648,4.980025 -1.599365,5.832214 C 34.405587,23.881612 34,26.468969 34,28.779108 l 0,4.200252 4.75,0.147226 c 3.650967,0.113162 3.99803,0.233074 1.5,0.518261 -2.205094,0.251744 -3.260225,0.869897 -3.281803,1.92266 -0.02926,1.427531 -0.138049,1.42287 -1.360243,-0.05829 -1.66164,-2.013712 -4.225651,-2.074996 -5.409272,-0.129291 -0.827845,1.360861 -0.950653,1.360861 -1.518305,0 -0.815617,-1.95532 -3.624861,-1.886639 -5.288331,0.129291 -1.26518,1.53325 -1.329954,1.53325 -1.360243,0 -0.01922,-0.972937 -0.803457,-1.60991 -1.982113,-1.60991 -1.07267,0 -2.392408,0.724461 -2.93275,1.609912 -0.935658,1.53325 -1.014547,1.53325 -1.656679,0 -0.864933,-2.065242 -3.364055,-2.065242 -5.068215,0 -1.26518,1.53325 -1.329953,1.53325 -1.360242,0 C 8.992454,33.517109 5.439682,33.3399 4.264679,35.27144 3.553962,36.439757 3.17669,36.371434 1.724776,34.811465 Z m 22.70989,-2.982044 c 0.204542,-0.632466 1.114232,-3.219824 2.021531,-5.749685 2.319574,-6.467763 2.319363,-7.322365 -0.0019,-7.628492 -1.624521,-0.214241 -2.640304,0.874711 -4.933869,5.289266 -1.588483,3.057476 -3.118301,5.559049 -3.399578,5.559049 -0.281277,0 -1.717802,-1.063273 -3.192278,-2.362828 l -2.680866,-2.362828 -2.123853,3.161376 C 8.955734,29.474037 8,31.365265 8,31.938008 8,33.464134 23.940051,33.358816 24.434666,31.829423 Z M 31,28.655597 C 31,23.692508 29.531281,24.19916 28.466525,29.529549 27.902946,32.35094 28.070932,32.97936 29.388709,32.97936 30.641878,32.97936 31,32.01837 31,28.655597 Z m 0,-13.042636 c 0,-0.44402 -0.709297,-1.348849 -1.576215,-2.010732 -1.304819,-0.996216 -1.726187,-0.980193 -2.447214,0.09306 -0.544478,0.810461 -0.422186,1.558964 0.326215,1.996644 C 28.931091,16.644201 31,16.600005 31,15.612953 Z m 3.380002,-5.128312 C 33.676287,8.7975963 34.700488,7.2207705 36.5,7.2207705 c 2.058081,0 2.837849,1.7368565 1.463645,3.2601225 -1.538424,1.7053 -2.873299,1.706699 -3.583643,0.0038 z"
     style="fill:#656565" />
  <path
     inkscape:connector-curvature="0"
     id="path4138-8"
     d="m 47.705187,48.288266 c 0.302633,-2.802979 0.467381,-2.902318 4.813359,-2.902318 4.345978,0 4.510725,0.09934 4.813358,2.902318 l 0.313359,2.902316 -5.126717,0 -5.126717,0 0.313358,-2.902316 z m 11.828672,0.89302 c 0.02585,-3.392462 1.388024,-4.387398 5.586472,-4.08039 3.588861,0.262431 3.923081,0.515374 4.211572,3.18737 l 0.313359,2.902316 -5.063359,0 c -4.588759,0 -5.061922,-0.188336 -5.048044,-2.009296 z m 12.3544,0 c 0.331637,-1.105113 0.609121,-2.51162 0.616631,-3.125571 0.0088,-0.721674 1.565723,-1.116276 4.404249,-1.116276 4.273325,0 4.401507,0.08348 4.799199,3.125571 l 0.408606,3.125572 -5.415831,0 c -5.12841,0 -5.38383,-0.106635 -4.812854,-2.009296 z M 50.518546,41.813867 c 0,-1.637203 0.533333,-2.232551 2,-2.232551 1.466667,0 2,0.595348 2,2.232551 0,1.637204 -0.533333,2.232551 -2,2.232551 -1.466667,0 -2,-0.595347 -2,-2.232551 z m 12.666666,1.637204 c -1.492039,-1.332421 -0.617795,-3.869755 1.333333,-3.869755 1.466667,0 2,0.595348 2,2.232551 0,2.101291 -1.815259,2.992875 -3.333333,1.637204 z m 11.697526,-0.73821 c -0.346367,-0.806057 -0.150254,-1.893764 0.435807,-2.417129 1.523609,-1.360613 4.41041,-0.117063 4.012423,1.728434 -0.443302,2.055628 -3.647668,2.551742 -4.44823,0.688695 z m -4.364193,-7.482512 0,-2.793197 -10.999999,0 -11,0 0,-7.144162 c 0,-4.167429 -0.416667,-7.144164 -1,-7.144164 -0.55,0 -1,-0.803719 -1,-1.786041 0,-1.726507 0.666667,-1.786041 19.999999,-1.786041 19.333333,0 20,0.05954 20,1.786041 0,0.982322 -0.45,1.786041 -1,1.786041 -0.57704,0 -1,2.809527 -1,6.642538 0,5.999374 -0.266268,6.90282 -2.75,9.330728 -1.872908,1.830813 -4.105506,2.881671 -7,3.294822 -4.238935,0.605053 -4.25,0.59936 -4.25,-2.186565 z m 0,-4.853888 c 0,-0.642218 -1.8,-1.876869 -4,-2.743669 -3.902627,-1.537633 -4.872369,-2.64594 -3.147905,-3.597701 1.464055,-0.808036 8.56534,2.962569 9.534318,5.062485 0.893258,1.935819 0.946242,1.914015 1.649926,-0.679015 l 0.727031,-2.679062 0.197263,2.679062 c 0.108494,1.473483 0.422388,2.076272 0.697542,1.33953 0.275155,-0.736742 0.726854,-1.942319 1.003777,-2.679061 0.376044,-1.00045 1.241955,-0.556884 3.420772,1.752308 l 2.917276,3.091838 0,-6.887174 0,-6.887176 -17,0 -16.999999,0 0,6.697653 0,6.697654 10.5,0 c 7.979817,0 10.499999,-0.280262 10.499999,-1.167672 z m -18.55179,-1.756408 c -0.795781,-1.85192 -0.230649,-4.26469 1.051792,-4.490508 1.394059,-0.245473 1.9001,3.842415 0.617447,4.987851 -0.735843,0.657123 -1.237368,0.507695 -1.669239,-0.497343 z m 3.551791,-1.094512 c 0,-1.227904 0.45,-2.232551 1,-2.232551 0.55,0 1,1.004647 1,2.232551 0,1.227902 -0.45,2.23255 -1,2.23255 -0.55,0 -1,-1.004648 -1,-2.23255 z m 3.63948,1.612925 c -0.351714,-0.314087 -0.63948,-2.111529 -0.63948,-3.994313 0,-2.447536 0.427536,-3.423244 1.5,-3.423244 1.07959,0 1.499999,0.986389 1.499999,3.519377 0,3.391559 -1.027583,5.088519 -2.360519,3.89818 z m 13.854988,-4.746487 c -0.969483,-1.400844 0.47345,-4.457111 2.104303,-4.457111 2.037098,0 2.876167,2.431522 1.390659,4.029965 -1.439189,1.548599 -2.619039,1.692798 -3.494962,0.427146 z"
     style="fill:#656565" />
</svg>
