<?xml version="1.0" encoding="UTF-8" standalone="no"?>
<!-- Created with Inkscape (http://www.inkscape.org/) -->

<svg
   xmlns:dc="http://purl.org/dc/elements/1.1/"
   xmlns:cc="http://creativecommons.org/ns#"
   xmlns:rdf="http://www.w3.org/1999/02/22-rdf-syntax-ns#"
   xmlns:svg="http://www.w3.org/2000/svg"
   xmlns="http://www.w3.org/2000/svg"
   xmlns:sodipodi="http://sodipodi.sourceforge.net/DTD/sodipodi-0.dtd"
   xmlns:inkscape="http://www.inkscape.org/namespaces/inkscape"
   id="svg2"
   version="1.1"
   inkscape:version="0.91 r13725"
   width="35.774746"
   height="37.031448"
   viewBox="0 0 35.774746 37.031449"
   sodipodi:docname="lamp.svg">
  <metadata
     id="metadata8">
    <rdf:RDF>
      <cc:Work
         rdf:about="">
        <dc:format>image/svg+xml</dc:format>
        <dc:type
           rdf:resource="http://purl.org/dc/dcmitype/StillImage" />
        <dc:title></dc:title>
      </cc:Work>
    </rdf:RDF>
  </metadata>
  <defs
     id="defs6" />
  <sodipodi:namedview
     pagecolor="#ffffff"
     bordercolor="#666666"
     borderopacity="1"
     objecttolerance="10"
     gridtolerance="10"
     guidetolerance="10"
     inkscape:pageopacity="0"
     inkscape:pageshadow="2"
     inkscape:window-width="1366"
     inkscape:window-height="706"
     id="namedview4"
     showgrid="false"
     inkscape:zoom="7.5236617"
     inkscape:cx="-11.678807"
     inkscape:cy="16.03646"
     inkscape:window-x="-8"
     inkscape:window-y="-8"
     inkscape:window-maximized="1"
     inkscape:current-layer="svg2"
     fit-margin-top="0"
     fit-margin-left="0"
     fit-margin-right="0"
     fit-margin-bottom="0" />
  <path
     style="fill:#666666"
     d="m 6.7747462,34.243967 c 0,-2.53853 -0.233539,-2.767228 -2.614904,-2.560686 -3.838654,0.332937 -5.0492,-1.616939 -3.512595,-5.657881 1.023607,-2.691868 1.634307,-3.229877 3.436174,-3.027174 1.727605,0.194351 2.148697,0.720907 1.989887,2.488263 -0.178466,1.986098 0.06623,2.188814 2.145741,1.77759 2.4534318,-0.48517 3.5557018,0.594272 3.5557018,3.482086 0,0.805677 0.34578,1.633246 0.7684,1.839042 0.42262,0.205796 0.66661,-1.102866 0.5422,-2.908138 l -0.2262,-3.282313 1.18903,3.545566 1.18903,3.545563 0.32935,-3.398335 c 0.45443,-4.688982 2.175546,-3.849801 4.229516,2.062226 l 1.696,4.881674 -7.358666,0 -7.3586648,0 0,-2.787483 z m 2.624646,-9.439366 c -2.885155,-2.273222 -1.688866,-5.894924 1.9471588,-5.894924 2.68855,0 4.71018,2.366783 4.24099,4.965038 -0.39013,2.160407 -3.94786,2.695021 -6.1881488,0.929886 z m 9.0894048,-0.07962 c -0.39273,-0.309436 -0.71406,-1.724199 -0.71406,-3.143917 0,-1.41972 -0.948716,-3.848228 -2.108266,-5.396686 -3.89924,-5.207041 -0.49147,-10.6690524 6.656466,-10.6690524 6.32452,0 9.41817,5.7491574 5.94293,11.0441674 -0.82988,1.264437 -1.85995,3.640086 -2.28905,5.279219 -0.67219,2.567785 -1.19493,3.012671 -3.77706,3.214559 -1.64829,0.128875 -3.31822,-0.01885 -3.71096,-0.328292 z m 8.26562,-8.147621 c 2.60905,-4.029454 2.55786,-6.6665595 -0.16824,-8.6676314 -3.67467,-2.6973696 -9.066536,-1.6769471 -10.868266,2.0568409 -0.74436,1.5425745 -0.453,2.8643615 1.29202,5.8613685 1.897306,3.258563 2.685096,3.869646 4.988636,3.869646 2.18009,0 3.14575,-0.633551 4.75585,-3.120224 z m -6.29497,1.421056 c -2.56425,-1.130665 -2.0114,-2.334976 0.81529,-1.775992 3.27334,0.647305 3.17418,-0.375564 -0.24464,-2.523438 -2.69849,-1.695337 -2.71319,-1.751703 -0.87413,-3.352833 1.45114,-1.2633957 2.29069,-1.4513282 3.74464,-0.8382366 2.73412,1.1529046 2.30275,2.4254186 -0.62587,1.8462806 -1.375,-0.271906 -2.5,-0.158296 -2.5,0.252471 0,0.410765 1.125,1.150714 2.5,1.644329 1.375,0.493616 2.5,1.528909 2.5,2.300651 0,1.933321 -3.17015,3.392627 -5.31529,2.446768 z m 11.31529,-1.058493 c -1.35129,-1.282872 -1.02806,-1.443232 1.41822,-0.703607 0.86998,0.263038 1.58178,0.794871 1.58178,1.181855 0,1.089854 -1.62035,0.831543 -3,-0.478248 z M 9.7656082,16.16069 c 0.6796628,-0.645248 1.6828028,-0.955483 2.2292028,-0.689414 0.60347,0.293856 0.46085,0.749665 -0.3633,1.161114 -2.1570378,1.076879 -3.2152828,0.809354 -1.8659028,-0.4717 z M 33.274747,11.818549 c 0.33991,-0.433347 1.04147,-0.787903 1.55901,-0.787903 0.51754,0 0.94099,0.354556 0.94099,0.787903 0,0.433347 -0.70156,0.787904 -1.55902,0.787904 -0.85746,0 -1.2809,-0.354557 -0.94098,-0.787904 z M 7.2747462,11.030646 c 0.339918,-0.433347 1.266476,-0.787903 2.059017,-0.787903 0.7925378,0 1.4409878,0.354556 1.4409878,0.787903 0,0.433347 -0.9265598,0.787903 -2.0590218,0.787903 -1.13246,0 -1.780902,-0.354556 -1.440983,-0.787903 z M 31.774747,7.1754251 c 0,-0.386984 0.7118,-0.9188181 1.58178,-1.181855 2.44628,-0.7396244 2.76951,-0.5792649 1.41822,0.7036066 -1.37965,1.3097918 -3,1.5681017 -3,0.4782484 z M 9.9179812,6.3896475 C 9.0938322,5.9781992 8.9512122,5.5223902 9.5546762,5.228533 10.101081,4.9624629 11.104221,5.272704 11.783881,5.9179485 c 1.34938,1.281054 0.29114,1.5485778 -1.8658998,0.471699 z M 27.806547,3.7890396 c -0.0175,-0.7327818 0.44813,-1.5660381 1.03473,-1.8516799 1.76258,-0.8582895 2.0097,0.046523 0.45494,1.6657224 -1.27998,1.3330254 -1.46175,1.355716 -1.48967,0.1859575 z M 15.119821,2.7236804 c -0.93027,-1.91008131 0.36779,-2.25490952 1.60909,-0.4274528 0.77398,1.1394562 0.78919,1.643288 0.0496,1.643288 -0.58662,0 -1.33304,-0.5471263 -1.65872,-1.2158352 z m 6.654926,-1.1013739 c 0,-0.89226926 0.45,-1.6223065 1,-1.6223065 0.55,0 1,0.51090954 1,1.1353553 0,0.6244447 -0.45,1.3544824 -1,1.6223052 -0.55,0.2678236 -1,-0.2430866 -1,-1.135354 z"
     id="path4138"
     inkscape:connector-curvature="0" />
  <path
     inkscape:connector-curvature="0"
     id="path4138-1"
     d="m -80.618407,34.639549 c -0.93786,-1.00766 -1.259605,-1.832107 -0.714988,-1.832107 1.441684,0 1.214903,-4.349962 -0.259788,-4.983061 -1,-0.429309 -1,-0.643965 0,-1.073274 1.622012,-0.696346 1.622012,-4.691641 0,-5.293744 -1,-0.371208 -1,-0.478536 0,-0.536638 1.626976,-0.09453 1.626976,-4.357212 0,-5.055689 -1,-0.429309 -1,-0.643964 0,-1.073273 1.474691,-0.6331 1.701472,-4.9830613 0.259788,-4.9830613 -0.544617,0 -0.207117,-0.8436021 0.75,-1.8746715 1.672714,-1.8019558 1.759606,-1.4183672 2.240212,9.8894588 l 0.5,11.764129 3.32336,-5.857141 3.323359,-5.857144 2.91621,2.570254 c 1.603915,1.413639 3.070223,2.393443 3.258462,2.177344 1.792838,-2.058184 10.597863,-18.6278142 10.207504,-19.2088662 -0.52918,-0.78769 4.331768,-4.15764202 5.047452,-3.49924902 0.221551,0.203816 0.688757,1.68581402 1.038236,3.29333002 0.500727,2.3032165 0.298422,2.9227566 -0.954399,2.9227566 -0.874399,0 -2.106797,0.8886603 -2.738663,1.9747997 -0.933816,1.6051768 -0.846817,2.1302949 0.464816,2.8055629 0.887515,0.456918 1.620554,1.534651 1.628976,2.39496 0.0087,0.889576 0.332176,1.167435 0.75,0.64425 0.404078,-0.505972 1.566901,-0.984302 2.584052,-1.062955 1.646216,-0.127298 1.772684,0.327449 1.151304,4.139772 -0.383934,2.35553 -1.103648,4.980025 -1.599365,5.832214 -0.495717,0.852188 -0.901304,3.439545 -0.901304,5.749684 l 0,4.200252 4.75,0.147226 c 3.650967,0.113162 3.99803,0.233074 1.5,0.518261 -2.205094,0.251744 -3.260225,0.869897 -3.281803,1.92266 -0.02926,1.427531 -0.138049,1.42287 -1.360243,-0.05829 -1.66164,-2.013712 -4.225651,-2.074996 -5.409272,-0.129291 -0.827845,1.360861 -0.950653,1.360861 -1.518305,0 -0.815617,-1.95532 -3.624861,-1.886639 -5.288331,0.129291 -1.26518,1.53325 -1.329954,1.53325 -1.360243,0 -0.01922,-0.972937 -0.803457,-1.60991 -1.982113,-1.60991 -1.07267,0 -2.392408,0.724461 -2.93275,1.609912 -0.935658,1.53325 -1.014547,1.53325 -1.656679,0 -0.864933,-2.065242 -3.364055,-2.065242 -5.068215,0 -1.26518,1.53325 -1.329953,1.53325 -1.360242,0 -0.03935,-1.99211 -3.592122,-2.169319 -4.767125,-0.237779 -0.710717,1.168317 -1.087989,1.099994 -2.539903,-0.459975 z m 22.70989,-2.982044 c 0.204542,-0.632466 1.114232,-3.219824 2.021531,-5.749685 2.319574,-6.467763 2.319363,-7.322365 -0.0019,-7.628492 -1.624521,-0.214241 -2.640304,0.874711 -4.933869,5.289266 -1.588483,3.057476 -3.118301,5.559049 -3.399578,5.559049 -0.281277,0 -1.717802,-1.063273 -3.192278,-2.362828 l -2.680866,-2.362828 -2.123853,3.161376 c -1.168119,1.738756 -2.123853,3.629984 -2.123853,4.202727 0,1.526126 15.940051,1.420808 16.434666,-0.108585 z m 6.565334,-3.173826 c 0,-4.963089 -1.468719,-4.456437 -2.533475,0.873952 -0.563579,2.821391 -0.395593,3.449811 0.922184,3.449811 1.253169,0 1.611291,-0.96099 1.611291,-4.323763 z m 0,-13.042636 c 0,-0.44402 -0.709297,-1.348849 -1.576215,-2.010732 -1.304819,-0.996216 -1.726187,-0.980193 -2.447214,0.09306 -0.544478,0.810461 -0.422186,1.558964 0.326215,1.996644 1.628305,0.952268 3.697214,0.908072 3.697214,-0.07898 z m 3.380002,-5.128312 c -0.703715,-1.6870532 0.320486,-3.263879 2.119998,-3.263879 2.058081,0 2.837849,1.7368565 1.463645,3.260123 -1.538424,1.7053 -2.873299,1.706699 -3.583643,0.0038 z"
     style="fill:#656565" />
  <path
     inkscape:connector-curvature="0"
     id="path4138-8"
     d="m -38.891244,33.852407 c 0.302633,-2.84368 0.467381,-2.944462 4.813359,-2.944462 4.345978,0 4.510725,0.100783 4.813358,2.944462 l 0.313359,2.944459 -5.126717,0 -5.126717,0 0.313358,-2.944459 z m 11.828672,0.905987 c 0.02585,-3.441723 1.388024,-4.451106 5.586472,-4.13964 3.588861,0.266242 3.923081,0.522857 4.211572,3.233653 l 0.313359,2.944459 -5.063359,0 c -4.588759,0 -5.061922,-0.191071 -5.048044,-2.038472 z m 12.3544,0 c 0.331637,-1.12116 0.609121,-2.548091 0.616631,-3.170957 0.0088,-0.732153 1.565723,-1.132485 4.4042492,-1.132485 4.273325,0 4.401507,0.08469 4.799199,3.170957 l 0.408606,3.170957 -5.415831,0 c -5.1284102,0 -5.3838302,-0.108183 -4.8128542,-2.038472 z m -21.369713,-7.474399 c 0,-1.660976 0.533333,-2.264969 2,-2.264969 1.466667,0 2,0.603993 2,2.264969 0,1.660977 -0.533333,2.264969 -2,2.264969 -1.466667,0 -2,-0.603992 -2,-2.264969 z m 12.666666,1.660977 c -1.492039,-1.351768 -0.617795,-3.925946 1.333333,-3.925946 1.466667,0 2,0.603993 2,2.264969 0,2.131803 -1.815259,3.036334 -3.333333,1.660977 z m 11.697526,-0.748929 c -0.346367,-0.817761 -0.150254,-1.921263 0.435807,-2.452227 1.5236092,-1.38037 4.4104102,-0.118763 4.0124232,1.753532 -0.443302,2.085477 -3.6476682,2.588795 -4.4482302,0.698695 z m -4.364193,-7.591163 0,-2.833756 -10.999999,0 -11,0 0,-7.247899 c 0,-4.2279439 -0.416667,-7.2479029 -1,-7.2479029 -0.55,0 -1,-0.8153895 -1,-1.8119755 0,-1.75157697 0.666667,-1.81197544 19.999999,-1.81197544 19.3333332,0 20.0000002,0.0604046 20.0000002,1.81197544 0,0.996586 -0.45,1.8119755 -1,1.8119755 -0.57704,0 -1,2.8503231 -1,6.7389929 0,6.086488 -0.266268,7.003053 -2.75,9.466216 -1.872908,1.857397 -4.105506,2.923514 -7.0000002,3.342665 -4.238935,0.613838 -4.25,0.608063 -4.25,-2.218316 z m 0,-4.924369 c 0,-0.651544 -1.8,-1.904122 -4,-2.783509 -3.902627,-1.55996 -4.872369,-2.684361 -3.147905,-3.6499427 1.464055,-0.8197691 8.56534,3.0055887 9.534318,5.1359967 0.893258,1.963928 0.946242,1.941807 1.649926,-0.688875 l 0.727031,-2.717964 0.197263,2.717964 c 0.108494,1.494879 0.422388,2.106421 0.697542,1.358981 0.275155,-0.74744 0.7268542,-1.970523 1.0037772,-2.717963 0.376044,-1.014977 1.241955,-0.56497 3.420772,1.777753 l 2.917276,3.136733 0,-6.98718 0,-6.9871829 -17.0000002,0 -16.999999,0 0,6.7949079 0,6.794908 10.5,0 c 7.979817,0 10.499999,-0.284331 10.499999,-1.184627 z m -18.55179,-1.781912 c -0.795781,-1.878811 -0.230649,-4.3266168 1.051792,-4.5557141 1.394059,-0.2490374 1.9001,3.8982101 0.617447,5.0602781 -0.735843,0.666665 -1.237368,0.515067 -1.669239,-0.504564 z m 3.551791,-1.110405 c 0,-1.245734 0.45,-2.264969 1,-2.264969 0.55,0 1,1.019235 1,2.264969 0,1.245732 -0.45,2.264968 -1,2.264968 -0.55,0 -1,-1.019236 -1,-2.264968 z m 3.63948,1.636345 c -0.351714,-0.318647 -0.63948,-2.142189 -0.63948,-4.052313 0,-2.4830761 0.427536,-3.472952 1.5,-3.472952 1.07959,0 1.499999,1.000712 1.499999,3.570481 0,3.440807 -1.027583,5.162408 -2.360519,3.954784 z m 13.854988,-4.8154091 c -0.969483,-1.4211855 0.47345,-4.5218314 2.104303,-4.5218314 2.0370982,0 2.8761672,2.4668293 1.390659,4.0884827 -1.439189,1.5710868 -2.619039,1.7173788 -3.494962,0.4333487 z"
     style="fill:#656565" />
</svg>
