<?xml version="1.0" encoding="UTF-8" standalone="no"?>
<!-- Created with Inkscape (http://www.inkscape.org/) -->

<svg
   xmlns:dc="http://purl.org/dc/elements/1.1/"
   xmlns:cc="http://creativecommons.org/ns#"
   xmlns:rdf="http://www.w3.org/1999/02/22-rdf-syntax-ns#"
   xmlns:svg="http://www.w3.org/2000/svg"
   xmlns="http://www.w3.org/2000/svg"
   xmlns:sodipodi="http://sodipodi.sourceforge.net/DTD/sodipodi-0.dtd"
   xmlns:inkscape="http://www.inkscape.org/namespaces/inkscape"
   id="svg2"
   version="1.1"
   inkscape:version="0.91 r13725"
   width="218"
   height="60"
   viewBox="0 0 218 60"
   sodipodi:docname="logo.svg">
  <metadata
     id="metadata8">
    <rdf:RDF>
      <cc:Work
         rdf:about="">
        <dc:format>image/svg+xml</dc:format>
        <dc:type
           rdf:resource="http://purl.org/dc/dcmitype/StillImage" />
        <dc:title></dc:title>
      </cc:Work>
    </rdf:RDF>
  </metadata>
  <defs
     id="defs6" />
  <sodipodi:namedview
     pagecolor="#ffffff"
     bordercolor="#666666"
     borderopacity="1"
     objecttolerance="10"
     gridtolerance="10"
     guidetolerance="10"
     inkscape:pageopacity="0"
     inkscape:pageshadow="2"
     inkscape:window-width="1366"
     inkscape:window-height="706"
     id="namedview4"
     showgrid="false"
     inkscape:zoom="4.903773"
     inkscape:cx="32.754604"
     inkscape:cy="30"
     inkscape:window-x="-8"
     inkscape:window-y="-8"
     inkscape:window-maximized="1"
     inkscape:current-layer="svg2" />
  <path
     style="fill:#000000"
     d="m 27.895815,59.048722 c -0.684637,-0.68464 -1.244794,-2.488964 -1.244794,-4.009613 0,-4.118345 -3.286504,-5.541581 -6.663151,-2.885509 -3.451333,2.714819 -5.167518,2.586737 -8.532131,-0.636766 -3.3704724,-3.229117 -3.5071754,-4.936276 -0.639697,-7.988567 1.842853,-1.961625 1.99485,-2.678048 1.021439,-4.814451 -0.896006,-1.966519 -1.8827854,-2.509891 -4.5580334,-2.509891 -3.7599648,0 -4.6284278,-1.197457 -4.6284278,-6.381787 0,-3.963258 1.538077,-5.618213 5.2214388,-5.618213 2.042079,0 3.1373284,-0.693301 3.9650224,-2.509891 0.98556,-2.163068 0.813332,-2.861428 -1.246381,-5.053891 C 8.3583156,14.263453 8.2997526,13.920445 9.7006376,11.424594 10.525364,9.9552411 12.402337,8.0782681 13.87169,7.2535421 c 2.495851,-1.400884 2.838859,-1.342322 5.215549,0.890462 2.192463,2.0597129 2.890823,2.2319409 5.053891,1.246381 1.81659,-0.827694 2.509891,-1.922942 2.509891,-3.965022 0,-3.683361 1.654955,-5.22143803 5.618213,-5.22143803 5.18433,0 6.381787,0.86846203 6.381787,4.62842703 0,2.675248 0.543372,3.662027 2.509891,4.558033 2.136403,0.9734109 2.852826,0.8214139 4.814451,-1.021439 3.010299,-2.828028 4.475639,-2.730834 7.870939,0.52207 3.338014,3.1980209 3.508162,5.1489089 0.754394,8.6497579 -2.68108,3.40844 -1.233729,6.663151 2.963064,6.663151 3.871256,0 5.26752,2.045522 4.89837,7.176095 -0.303704,4.220984 -0.401531,4.331362 -4.109917,4.63718 -3.021424,0.249167 -4.00013,0.842793 -4.782601,2.900847 -0.796839,2.095846 -0.59753,2.998729 1.048808,4.751176 2.692169,2.865683 2.564822,4.369746 -0.65449,7.729983 -3.193658,3.33346 -4.938454,3.505129 -7.847611,0.772118 -1.752447,-1.646338 -2.65533,-1.845647 -4.751176,-1.048808 -2.058054,0.782471 -2.65168,1.761177 -2.900847,4.782601 -0.308354,3.739135 -0.384039,3.803435 -4.818481,4.093605 -2.639039,0.17268 -5.020831,-0.22083 -5.75,-0.95 z m 8.566293,-5.106901 c 0.269435,-3.258397 0.794693,-3.964167 3.923065,-5.271284 3.503468,-1.463843 3.696126,-1.428562 6.413006,1.174374 l 2.801028,2.683555 2.688178,-2.688177 2.688177,-2.688178 -2.683555,-2.801028 c -2.602936,-2.71688 -2.638217,-2.909538 -1.174374,-6.413006 1.307117,-3.128372 2.012887,-3.65363 5.271284,-3.923065 3.573626,-0.295502 3.762104,-0.486434 3.762104,-3.811087 0,-3.370406 -0.14884,-3.510969 -4.019785,-3.796249 -3.66702,-0.270251 -4.122111,-0.62128 -5.185789,-4 -1.067733,-3.391598 -0.959824,-3.919993 1.280357,-6.269505 l 2.446361,-2.565754 -2.325023,-2.184246 C 50.044329,9.2247901 47.651021,8.4986661 47.651021,9.9633781 c 0,2.0481799 -3.854564,3.0979809 -7.39041,2.0127989 -3.325463,-1.020613 -3.60959,-1.409465 -3.60959,-4.9400339 0,-3.804255 -0.02919,-3.832218 -4,-3.832218 -3.964748,0 -4,0.03348 -4,3.799111 0,3.4511109 -0.328317,3.9178329 -3.584229,5.0951859 -3.259473,1.178641 -3.786301,1.106236 -5.814451,-0.799112 -2.792257,-2.6231899 -3.41983,-2.6143139 -6.297441,0.08906 l -2.325024,2.184246 2.60883,2.723031 c 2.451182,2.558483 2.530324,2.940133 1.309684,6.315754 -1.180715,3.265208 -1.645476,3.592724 -5.0982584,3.592724 -3.7656308,0 -3.7991118,0.03525 -3.7991118,4 0,3.979987 0.01943,4 3.8834228,4 3.2160014,0 3.9672904,0.386696 4.3714054,2.25 0.268389,1.2375 0.781887,2.9408 1.141105,3.785111 0.382284,0.898526 -0.186414,2.436249 -1.371404,3.708186 -2.533044,2.718902 -2.52289,3.097319 0.159718,5.952824 l 2.184246,2.325023 2.565754,-2.446361 c 2.358254,-2.248516 2.869028,-2.350892 6.315754,-1.265881 3.417392,1.075776 3.75,1.498775 3.75,4.769122 0,4.435573 0.624236,5.095513 4.46406,4.719373 2.724723,-0.26691 3.06783,-0.68305 3.347027,-4.059501 z M 28.983935,42.126659 c -1.741898,-0.515321 -4.377516,-2.375461 -5.85693,-4.133644 -2.363591,-2.808969 -2.635918,-3.846949 -2.245256,-8.557823 0.610062,-7.356545 3.643994,-10.390477 11.000539,-11.000539 4.70706,-0.390346 5.749792,-0.117546 8.546868,2.236039 1.752158,1.474343 3.70193,4.403507 4.332826,6.509252 0.976229,3.258361 0.867208,4.39212 -0.731938,7.61177 -3.180723,6.403929 -8.850393,9.16788 -15.046109,7.334945 z m 8.522061,-3.347738 c 9.135141,-4.723965 5.03238,-18.574996 -5.502028,-18.574996 -3.61271,0 -9.363442,5.955942 -9.317512,9.65 0.09864,7.933211 7.785368,12.562507 14.81954,8.924996 z m 70.395014,6.675369 c 20.7625,-0.150928 54.7375,-0.150928 75.50001,0 20.7625,0.150929 3.775,0.274416 -37.75001,0.274416 -41.525,0 -58.512489,-0.123487 -37.75,-0.274416 z M 80.202373,39.930699 c 0.285158,-0.743108 -0.759683,-1.744393 -2.509478,-2.404867 -6.341583,-2.39368 -6.49503,-10.511261 -0.250773,-13.266294 1.953265,-0.861802 3.07161,-1.970999 2.772679,-2.75 -0.347229,-0.904865 0.471573,-1.305613 2.667605,-1.305613 2.463919,0 2.901821,0.266794 1.968996,1.199619 -0.932825,0.932825 -0.479517,1.433222 2.038269,2.25 6.844289,2.220309 6.982274,11.256224 0.209291,13.705366 -2.619809,0.947336 -3.135082,1.51706 -2.291439,2.533588 0.857976,1.033798 0.434011,1.311427 -2.002672,1.311427 -2.092078,0 -2.933158,-0.411487 -2.602478,-1.273226 z m 0.448648,-9.226774 c 0,-5.71506 -0.765242,-6.5919 -3.428571,-3.928571 -2.694974,2.694973 -1.29252,9.428571 1.963755,9.428571 1.108868,0 1.464816,-1.336491 1.464816,-5.5 z m 6.8,4.3 c 1.550085,-1.550085 1.550085,-7.049915 0,-8.6 -2.631362,-2.631362 -3.8,-1.308955 -3.8,4.3 0,5.608955 1.168638,6.931362 3.8,4.3 z m 8,5 c 1.603261,-1.603265 1.603261,-15.996735 0,-17.6 -0.933333,-0.933333 0.03223,-1.2 4.345011,-1.2 5.840528,0 8.854978,1.829507 8.854978,5.374195 0,2.368907 -4.4681,6.625805 -6.95454,6.625805 -1.66149,0 -2.045448,0.641358 -2.045448,3.416667 0,1.879166 0.562498,3.64364 1.249998,3.921052 0.6875,0.277413 -0.5275,0.539913 -2.699998,0.583334 -3.072223,0.0614 -3.683334,-0.18772 -2.750001,-1.121053 z m 9.199989,-10.8 c 1.3917,-2.600421 -0.32802,-6 -3.03518,-6 -1.625608,0 -1.964808,0.690543 -1.964808,4 0,3.309457 0.3392,4 1.964808,4 1.08065,0 2.44648,-0.9 3.03518,-2 z m 5.46953,6.25 c 1.23038,-3.1625 2.88322,-7.547237 3.67299,-9.743859 2.40782,-6.697015 4.08481,-5.651721 6.76451,4.216417 1.31094,4.827593 2.82325,9.339942 3.36069,10.027442 0.73352,0.938328 0.24181,1.25 -1.97208,1.25 -2.70813,0 -2.91326,-0.245275 -2.50895,-3 0.41781,-2.846678 0.2611,-3 -3.0662,-3 -3.83365,0 -5.58986,2.247548 -3.6153,4.626748 0.92333,1.112542 0.56898,1.373252 -1.8665,1.373252 l -3.00621,0 2.23705,-5.75 z m 7.24253,-6.486285 -1.07529,-4.236284 -1.27328,2.986284 c -1.85961,4.361426 -1.64839,5.486285 1.03018,5.486285 2.31742,0 2.35942,-0.13495 1.31839,-4.236285 z m 9.78794,2.236285 0,-10 2.95,0 c 2.29444,0 2.68333,0.266667 1.75,1.2 -0.66,0.66 -1.2,2.685 -1.2,4.5 0,3.12234 0.19385,3.3 3.60069,3.3 l 3.6007,0 -0.3579,-4.5 c -0.34991,-4.399546 -0.29189,-4.5 2.5993,-4.5 2.30005,0 2.69054,0.266667 1.75721,1.2 -0.72281,0.722807 -1.2,4.222222 -1.2,8.8 0,4.577778 0.47719,8.077193 1.2,8.8 0.93333,0.933333 0.54444,1.200138 -1.75,1.200622 -2.91965,6.15e-4 -2.94643,-0.05083 -2.60349,-5 l 0.34652,-5.000622 -3.59652,0 c -3.49771,0 -3.59651,0.104386 -3.59651,3.8 0,2.09 0.54,4.34 1.2,5 0.93333,0.933333 0.54444,1.2 -1.75,1.2 l -2.95,0 0,-10 z m 27.3,8.8 c 0.66,-0.66 1.2,-2.46 1.2,-4 0,-2.513999 -0.34499,-2.8 -3.37756,-2.8 -4.16828,0 -5.75928,-1.812395 -6.63052,-7.553218 -0.67315,-4.435597 -0.6672,-4.446782 2.36662,-4.446782 2.36558,0 2.77479,0.266667 1.84146,1.2 -1.29371,1.293711 -1.57105,4.66949 -0.59301,7.218213 0.35994,0.938 1.78444,1.581787 3.5,1.581787 2.68313,0 2.89301,-0.275674 2.89301,-3.8 0,-2.09 -0.54,-4.34 -1.2,-5 -0.93333,-0.933333 -0.54444,-1.2 1.75,-1.2 l 2.95,0 0,10 0,10 -2.95,0 c -2.29444,0 -2.68333,-0.266667 -1.75,-1.2 z m 7.97526,-0.05 c 0.56107,-0.6875 2.36057,-5.075 3.99887,-9.75 3.79435,-10.827406 5.32464,-11.282857 7.7028,-2.292524 0.98823,3.735888 2.38724,8.255024 3.10891,10.042524 1.29243,3.201241 1.27047,3.25 -1.46366,3.25 -2.51538,0 -2.73448,-0.281435 -2.33548,-3 0.41761,-2.845336 0.26003,-3 -3.05656,-3 -2.60456,0 -3.62471,0.488832 -3.99784,1.915672 -0.27552,1.053619 -0.013,2.403619 0.58337,3 0.77911,0.779104 0.14911,1.084328 -2.23811,1.084328 -2.53537,0 -3.08078,-0.296122 -2.3023,-1.25 z m 9.79214,-8.75 c -1.98214,-6.986886 -1.77116,-6.785638 -3.14503,-3 -1.76746,4.870132 -1.73772,5 1.14503,5 2.08985,0 2.46185,-0.372003 2,-2 z m 8.93261,0 0,-10 2.87244,0 c 2.36687,0 2.66519,0.24973 1.69493,1.418824 -0.67061,0.808035 -1.04619,3.632574 -0.87244,6.561217 l 0.30507,5.142393 3.81819,-5.126586 c 3.07138,-4.123848 3.58531,-5.407192 2.62756,-6.561216 -0.98724,-1.189547 -0.69993,-1.434632 1.68181,-1.434632 l 2.87244,0 0,10 0,10 -2.87244,0 c -2.36687,0 -2.66519,-0.24973 -1.69493,-1.418824 0.67061,-0.808035 1.04619,-3.632574 0.87244,-6.561217 l -0.30507,-5.142393 -3.81819,5.126586 c -3.07138,4.123848 -3.58531,5.407192 -2.62756,6.561216 0.98724,1.189547 0.69993,1.434632 -1.68181,1.434632 l -2.87244,0 0,-10 z m 18.5,7.5 c 0,-3.056562 0.66004,-3.141397 2.90178,-0.372967 1.26693,1.56459 2.31598,1.938628 3.96728,1.414526 1.80477,-0.572812 2.18472,-1.332942 1.93792,-3.877033 -0.25382,-2.616524 -0.7832,-3.219321 -3.05698,-3.480948 -3.60272,-0.414539 -3.48416,-1.467989 0.32712,-2.906586 2.3519,-0.887744 3.00002,-1.681304 2.75,-3.36711 -0.17992,-1.213095 -1.14281,-2.701584 -2.13977,-3.307754 -1.47274,-0.895459 -2.17452,-0.661187 -3.74245,1.249333 -1.60118,1.951037 -2.03132,2.086907 -2.52596,0.797887 -0.32789,-0.854466 -0.30473,-2.025123 0.0515,-2.601461 0.89073,-1.441225 8.85352,-1.323966 10.3296,0.152113 1.66655,1.666549 1.50028,5.305901 -0.31109,6.809204 -1.34257,1.114234 -1.32863,1.38751 0.125,2.450431 1.93612,1.415726 2.15348,5.910789 0.38865,8.037286 -0.79802,0.961496 -3.00495,1.503079 -6.12504,1.503079 -4.53606,0 -4.87756,-0.175035 -4.87756,-2.5 z m -14.8,-20.7 c -0.66,-0.66 -1.2,-1.56 -1.2,-2 0,-1.430399 2.24497,-0.844448 3.63976,0.95 1.29547,1.666667 1.42501,1.666667 2.72048,0 1.39479,-1.794448 3.63976,-2.380399 3.63976,-0.95 0,1.618377 -2.47129,3.2 -5,3.2 -1.43,0 -3.14,-0.54 -3.8,-1.2 z"
     id="path3338"
     inkscape:connector-curvature="0" />
</svg>
